<svg xmlns="http://www.w3.org/2000/svg" version="1.1" xmlns:xlink="http://www.w3.org/1999/xlink" width="1000" height="1000"><g clip-path="url(#SvgjsClipPath1415)"><rect width="1000" height="1000" fill="#fefefe"></rect><g transform="matrix(29.166666666666668,0,0,29.166666666666668,150,150)"><svg xmlns="http://www.w3.org/2000/svg" version="1.1" xmlns:xlink="http://www.w3.org/1999/xlink" width="24" height="24"><svg xmlns="http://www.w3.org/2000/svg" width="24" height="24" viewBox="0 0 24 24" fill="none" stroke="currentColor" stroke-width="2" stroke-linecap="round" stroke-linejoin="round" class="lucide lucide-hand-metal-icon lucide-hand-metal"><path d="M18 12.5V10a2 2 0 0 0-2-2a2 2 0 0 0-2 2v1.4"></path><path d="M14 11V9a2 2 0 1 0-4 0v2"></path><path d="M10 10.5V5a2 2 0 1 0-4 0v9"></path><path d="m7 15-1.76-1.76a2 2 0 0 0-2.83 2.82l3.6 3.6C7.5 21.14 9.2 22 12 22h2a8 8 0 0 0 8-8V7a2 2 0 1 0-4 0v5"></path></svg></svg></g></g><defs><clipPath id="SvgjsClipPath1415"><rect width="1000" height="1000" x="0" y="0" rx="300" ry="300"></rect></clipPath></defs></svg>